# xmcd CD database file
#
# Track frame offsets:
#	150
#	12412
#	25554
#	35856
#	48596
#	61203
#	72255
#	84455
#	100685
#	111784
#
# Disc length: 1655 seconds
#
# Revision: 0
# Processed by: cddbd v1.5.2PL0 Copyright (c) Steve Scherf et al.
# Submitted via: CDex 1.70beta2
#
DISCID=7c06750a
DTITLE=Tom Lang - Roll Freightliner
DYEAR=2000
DGENRE=Country
TTITLE0=Chicken Pickin' Guitar Man
TTITLE1=Roll Freightliner
TTITLE2=Waltz Of The Ocean
TTITLE3=Old Blue
TTITLE4=Little One's
TTITLE5=Cajun Fiddle Man
TTITLE6=Unforgiven
TTITLE7=The Ballad Of Rogue River
TTITLE8=Pickin Country
TTITLE9=Alligator Huntin Man
EXTD=YEAR: 2000
EXTT0=
EXTT1=
EXTT2=
EXTT3=
EXTT4=
EXTT5=
EXTT6=
EXTT7=
EXTT8=
EXTT9=
PLAYORDER=
